ISO-10303-21;
HEADER;
/* Generated by software containing ST-Developer
 * from STEP Tools, Inc. (www.steptools.com) 
 */

FILE_DESCRIPTION(
/* description */ (''),
/* implementation_level */ '2;1');

FILE_NAME(
/* name */ 'K:\\ba\\DCC\\STP_Files\\SOD-123_3910.01-001\\39100101.stp',

/* time_stamp */ '2015-01-15T10:47:27+01:00',
/* author */ ('brotzinger'),
/* organization */ (''),
/* preprocessor_version */ 'ST-DEVELOPER v15.2',
/* originating_system */ 'Autodesk Inventor 2014',
/* authorisation */ '');

FILE_SCHEMA (('AUTOMOTIVE_DESIGN { 1 0 10303 214 3 1 1 }'));
ENDSEC;

DATA;
#10=MECHANICAL_DESIGN_GEOMETRIC_PRESENTATION_REPRESENTATION('',(#701,#700,
#699,#698,#697,#693,#696,#695,#694,#692,#691,#690,#689,#688,#687,#686,#675,
#684,#683,#682,#681,#685,#680,#679,#678,#677,#676,#702),#1198);
#11=SHAPE_REPRESENTATION_RELATIONSHIP('SRR','None',#1207,#12);
#12=ADVANCED_BREP_SHAPE_REPRESENTATION($,(#742),#1197);
#13=CIRCLE('',#752,0.125);
#14=CIRCLE('',#753,0.125);
#15=CIRCLE('',#755,0.25);
#16=CIRCLE('',#756,0.25);
#17=CIRCLE('',#759,0.125);
#18=CIRCLE('',#760,0.125);
#19=CIRCLE('',#765,0.25);
#20=CIRCLE('',#766,0.25);
#21=CIRCLE('',#768,0.125);
#22=CIRCLE('',#769,0.125);
#23=CIRCLE('',#774,0.25);
#24=CIRCLE('',#775,0.25);
#25=CIRCLE('',#778,0.125);
#26=CIRCLE('',#779,0.125);
#27=CIRCLE('',#781,0.25);
#28=CIRCLE('',#782,0.25);
#29=CYLINDRICAL_SURFACE('',#751,0.125);
#30=CYLINDRICAL_SURFACE('',#754,0.25);
#31=CYLINDRICAL_SURFACE('',#758,0.125);
#32=CYLINDRICAL_SURFACE('',#764,0.25);
#33=CYLINDRICAL_SURFACE('',#767,0.125);
#34=CYLINDRICAL_SURFACE('',#773,0.25);
#35=CYLINDRICAL_SURFACE('',#777,0.125);
#36=CYLINDRICAL_SURFACE('',#780,0.25);
#37=FACE_OUTER_BOUND('',#75,.T.);
#38=FACE_OUTER_BOUND('',#76,.T.);
#39=FACE_OUTER_BOUND('',#77,.T.);
#40=FACE_OUTER_BOUND('',#78,.T.);
#41=FACE_OUTER_BOUND('',#79,.T.);
#42=FACE_OUTER_BOUND('',#80,.T.);
#43=FACE_OUTER_BOUND('',#81,.T.);
#44=FACE_OUTER_BOUND('',#82,.T.);
#45=FACE_OUTER_BOUND('',#83,.T.);
#46=FACE_OUTER_BOUND('',#84,.T.);
#47=FACE_OUTER_BOUND('',#85,.T.);
#48=FACE_OUTER_BOUND('',#86,.T.);
#49=FACE_OUTER_BOUND('',#87,.T.);
#50=FACE_OUTER_BOUND('',#88,.T.);
#51=FACE_OUTER_BOUND('',#89,.T.);
#52=FACE_OUTER_BOUND('',#90,.T.);
#53=FACE_OUTER_BOUND('',#91,.T.);
#54=FACE_OUTER_BOUND('',#92,.T.);
#55=FACE_OUTER_BOUND('',#93,.T.);
#56=FACE_OUTER_BOUND('',#94,.T.);
#57=FACE_OUTER_BOUND('',#95,.T.);
#58=FACE_OUTER_BOUND('',#96,.T.);
#59=FACE_OUTER_BOUND('',#97,.T.);
#60=FACE_OUTER_BOUND('',#98,.T.);
#61=FACE_OUTER_BOUND('',#99,.T.);
#62=FACE_OUTER_BOUND('',#100,.T.);
#63=FACE_OUTER_BOUND('',#101,.T.);
#64=FACE_OUTER_BOUND('',#102,.T.);
#65=FACE_OUTER_BOUND('',#103,.T.);
#66=FACE_OUTER_BOUND('',#104,.T.);
#67=FACE_OUTER_BOUND('',#105,.T.);
#68=FACE_OUTER_BOUND('',#106,.T.);
#69=FACE_OUTER_BOUND('',#107,.T.);
#70=FACE_OUTER_BOUND('',#108,.T.);
#71=FACE_OUTER_BOUND('',#109,.T.);
#72=FACE_OUTER_BOUND('',#110,.T.);
#73=FACE_OUTER_BOUND('',#111,.T.);
#74=FACE_OUTER_BOUND('',#112,.T.);
#75=EDGE_LOOP('',(#445,#446,#447,#448));
#76=EDGE_LOOP('',(#449,#450,#451,#452));
#77=EDGE_LOOP('',(#453,#454,#455,#456));
#78=EDGE_LOOP('',(#457,#458,#459,#460));
#79=EDGE_LOOP('',(#461,#462,#463,#464));
#80=EDGE_LOOP('',(#465,#466,#467,#468,#469,#470,#471,#472));
#81=EDGE_LOOP('',(#473,#474,#475,#476));
#82=EDGE_LOOP('',(#477,#478,#479,#480));
#83=EDGE_LOOP('',(#481,#482,#483,#484));
#84=EDGE_LOOP('',(#485,#486,#487,#488));
#85=EDGE_LOOP('',(#489,#490,#491,#492));
#86=EDGE_LOOP('',(#493,#494,#495,#496));
#87=EDGE_LOOP('',(#497,#498,#499,#500));
#88=EDGE_LOOP('',(#501,#502,#503,#504));
#89=EDGE_LOOP('',(#505,#506,#507,#508));
#90=EDGE_LOOP('',(#509,#510,#511,#512));
#91=EDGE_LOOP('',(#513,#514,#515,#516));
#92=EDGE_LOOP('',(#517,#518,#519,#520));
#93=EDGE_LOOP('',(#521,#522,#523,#524));
#94=EDGE_LOOP('',(#525,#526,#527,#528));
#95=EDGE_LOOP('',(#529,#530,#531,#532));
#96=EDGE_LOOP('',(#533,#534,#535,#536));
#97=EDGE_LOOP('',(#537,#538,#539,#540));
#98=EDGE_LOOP('',(#541,#542,#543,#544));
#99=EDGE_LOOP('',(#545,#546,#547,#548,#549,#550));
#100=EDGE_LOOP('',(#551,#552,#553,#554,#555,#556,#557,#558,#559,#560,#561));
#101=EDGE_LOOP('',(#562,#563,#564,#565));
#102=EDGE_LOOP('',(#566,#567,#568,#569));
#103=EDGE_LOOP('',(#570,#571,#572,#573,#574,#575,#576,#577,#578,#579,#580));
#104=EDGE_LOOP('',(#581,#582,#583,#584,#585,#586,#587,#588,#589,#590,#591));
#105=EDGE_LOOP('',(#592,#593,#594,#595,#596,#597,#598,#599,#600,#601,#602));
#106=EDGE_LOOP('',(#603,#604,#605,#606,#607,#608,#609,#610));
#107=EDGE_LOOP('',(#611,#612,#613,#614,#615,#616,#617,#618));
#108=EDGE_LOOP('',(#619,#620,#621,#622));
#109=EDGE_LOOP('',(#623,#624,#625,#626));
#110=EDGE_LOOP('',(#627,#628,#629,#630));
#111=EDGE_LOOP('',(#631,#632,#633,#634,#635,#636));
#112=EDGE_LOOP('',(#637,#638,#639,#640,#641,#642,#643,#644));
#113=LINE('',#996,#197);
#114=LINE('',#998,#198);
#115=LINE('',#1000,#199);
#116=LINE('',#1001,#200);
#117=LINE('',#1005,#201);
#118=LINE('',#1007,#202);
#119=LINE('',#1009,#203);
#120=LINE('',#1010,#204);
#121=LINE('',#1012,#205);
#122=LINE('',#1013,#206);
#123=LINE('',#1016,#207);
#124=LINE('',#1018,#208);
#125=LINE('',#1019,#209);
#126=LINE('',#1022,#210);
#127=LINE('',#1024,#211);
#128=LINE('',#1025,#212);
#129=LINE('',#1028,#213);
#130=LINE('',#1030,#214);
#131=LINE('',#1031,#215);
#132=LINE('',#1035,#216);
#133=LINE('',#1037,#217);
#134=LINE('',#1039,#218);
#135=LINE('',#1040,#219);
#136=LINE('',#1045,#220);
#137=LINE('',#1052,#221);
#138=LINE('',#1055,#222);
#139=LINE('',#1058,#223);
#140=LINE('',#1060,#224);
#141=LINE('',#1061,#225);
#142=LINE('',#1066,#226);
#143=LINE('',#1070,#227);
#144=LINE('',#1072,#228);
#145=LINE('',#1073,#229);
#146=LINE('',#1076,#230);
#147=LINE('',#1078,#231);
#148=LINE('',#1079,#232);
#149=LINE('',#1082,#233);
#150=LINE('',#1084,#234);
#151=LINE('',#1085,#235);
#152=LINE('',#1094,#236);
#153=LINE('',#1097,#237);
#154=LINE('',#1100,#238);
#155=LINE('',#1102,#239);
#156=LINE('',#1103,#240);
#157=LINE('',#1106,#241);
#158=LINE('',#1108,#242);
#159=LINE('',#1109,#243);
#160=LINE('',#1112,#244);
#161=LINE('',#1114,#245);
#162=LINE('',#1115,#246);
#163=LINE('',#1121,#247);
#164=LINE('',#1124,#248);
#165=LINE('',#1126,#249);
#166=LINE('',#1127,#250);
#167=LINE('',#1133,#251);
#168=LINE('',#1139,#252);
#169=LINE('',#1142,#253);
#170=LINE('',#1144,#254);
#171=LINE('',#1145,#255);
#172=LINE('',#1148,#256);
#173=LINE('',#1149,#257);
#174=LINE('',#1150,#258);
#175=LINE('',#1153,#259);
#176=LINE('',#1154,#260);
#177=LINE('',#1157,#261);
#178=LINE('',#1158,#262);
#179=LINE('',#1162,#263);
#180=LINE('',#1163,#264);
#181=LINE('',#1164,#265);
#182=LINE('',#1166,#266);
#183=LINE('',#1168,#267);
#184=LINE('',#1170,#268);
#185=LINE('',#1173,#269);
#186=LINE('',#1175,#270);
#187=LINE('',#1177,#271);
#188=LINE('',#1178,#272);
#189=LINE('',#1179,#273);
#190=LINE('',#1182,#274);
#191=LINE('',#1184,#275);
#192=LINE('',#1185,#276);
#193=LINE('',#1187,#277);
#194=LINE('',#1188,#278);
#195=LINE('',#1190,#279);
#196=LINE('',#1193,#280);
#197=VECTOR('',#802,1.55);
#198=VECTOR('',#803,0.005);
#199=VECTOR('',#804,1.55);
#200=VECTOR('',#805,0.005);
#201=VECTOR('',#808,1.55);
#202=VECTOR('',#809,0.005);
#203=VECTOR('',#810,1.55);
#204=VECTOR('',#811,0.005);
#205=VECTOR('',#814,0.25);
#206=VECTOR('',#815,0.25);
#207=VECTOR('',#818,0.43);
#208=VECTOR('',#819,1.55);
#209=VECTOR('',#820,0.43);
#210=VECTOR('',#823,2.02);
#211=VECTOR('',#824,1.55);
#212=VECTOR('',#825,2.02);
#213=VECTOR('',#828,0.55);
#214=VECTOR('',#829,2.7);
#215=VECTOR('',#830,0.55);
#216=VECTOR('',#833,0.232743197390531);
#217=VECTOR('',#834,0.55);
#218=VECTOR('',#835,0.232743197390531);
#219=VECTOR('',#836,0.55);
#220=VECTOR('',#841,0.55);
#221=VECTOR('',#848,0.55);
#222=VECTOR('',#851,0.55);
#223=VECTOR('',#854,0.232743197390531);
#224=VECTOR('',#855,0.55);
#225=VECTOR('',#856,0.232743197390531);
#226=VECTOR('',#861,0.549999999999999);
#227=VECTOR('',#866,0.118475182470363);
#228=VECTOR('',#867,0.549999999999999);
#229=VECTOR('',#868,0.118475182470364);
#230=VECTOR('',#871,0.125);
#231=VECTOR('',#872,0.549999999999999);
#232=VECTOR('',#873,0.125);
#233=VECTOR('',#876,0.118475182470363);
#234=VECTOR('',#877,0.549999999999999);
#235=VECTOR('',#878,0.118475182470364);
#236=VECTOR('',#889,0.55);
#237=VECTOR('',#892,0.549999999999999);
#238=VECTOR('',#895,0.118475182470364);
#239=VECTOR('',#896,0.118475182470364);
#240=VECTOR('',#897,0.549999999999999);
#241=VECTOR('',#900,0.125);
#242=VECTOR('',#901,0.125);
#243=VECTOR('',#902,0.549999999999999);
#244=VECTOR('',#905,0.118475182470364);
#245=VECTOR('',#906,0.118475182470364);
#246=VECTOR('',#907,0.549999999999999);
#247=VECTOR('',#914,0.55);
#248=VECTOR('',#917,0.232743197390531);
#249=VECTOR('',#918,0.232743197390531);
#250=VECTOR('',#919,0.55);
#251=VECTOR('',#926,0.55);
#252=VECTOR('',#931,0.55);
#253=VECTOR('',#934,0.55);
#254=VECTOR('',#937,0.232743197390531);
#255=VECTOR('',#938,0.232743197390531);
#256=VECTOR('',#941,0.499999999999999);
#257=VECTOR('',#942,0.55);
#258=VECTOR('',#943,0.499999999999999);
#259=VECTOR('',#946,0.125477479692918);
#260=VECTOR('',#947,0.0109360829407407);
#261=VECTOR('',#950,0.55);
#262=VECTOR('',#951,0.0109360829407407);
#263=VECTOR('',#954,0.55);
#264=VECTOR('',#955,0.0109360829407404);
#265=VECTOR('',#956,0.0109360829407404);
#266=VECTOR('',#959,0.125477479692918);
#267=VECTOR('',#962,0.125477479692918);
#268=VECTOR('',#965,0.125477479692918);
#269=VECTOR('',#968,0.5);
#270=VECTOR('',#969,0.705337636115245);
#271=VECTOR('',#970,1.42751587106371);
#272=VECTOR('',#971,0.705337636115245);
#273=VECTOR('',#972,0.5);
#274=VECTOR('',#975,0.705337636115245);
#275=VECTOR('',#976,1.42751587106371);
#276=VECTOR('',#977,0.705337636115245);
#277=VECTOR('',#980,2.57751587106371);
#278=VECTOR('',#981,2.7);
#279=VECTOR('',#984,2.57751587106371);
#280=VECTOR('',#989,0.55);
#281=VERTEX_POINT('',#994);
#282=VERTEX_POINT('',#995);
#283=VERTEX_POINT('',#997);
#284=VERTEX_POINT('',#999);
#285=VERTEX_POINT('',#1003);
#286=VERTEX_POINT('',#1004);
#287=VERTEX_POINT('',#1006);
#288=VERTEX_POINT('',#1008);
#289=VERTEX_POINT('',#1015);
#290=VERTEX_POINT('',#1017);
#291=VERTEX_POINT('',#1021);
#292=VERTEX_POINT('',#1023);
#293=VERTEX_POINT('',#1027);
#294=VERTEX_POINT('',#1029);
#295=VERTEX_POINT('',#1033);
#296=VERTEX_POINT('',#1034);
#297=VERTEX_POINT('',#1036);
#298=VERTEX_POINT('',#1038);
#299=VERTEX_POINT('',#1042);
#300=VERTEX_POINT('',#1044);
#301=VERTEX_POINT('',#1048);
#302=VERTEX_POINT('',#1049);
#303=VERTEX_POINT('',#1051);
#304=VERTEX_POINT('',#1053);
#305=VERTEX_POINT('',#1057);
#306=VERTEX_POINT('',#1059);
#307=VERTEX_POINT('',#1063);
#308=VERTEX_POINT('',#1065);
#309=VERTEX_POINT('',#1069);
#310=VERTEX_POINT('',#1071);
#311=VERTEX_POINT('',#1075);
#312=VERTEX_POINT('',#1077);
#313=VERTEX_POINT('',#1081);
#314=VERTEX_POINT('',#1083);
#315=VERTEX_POINT('',#1090);
#316=VERTEX_POINT('',#1091);
#317=VERTEX_POINT('',#1093);
#318=VERTEX_POINT('',#1095);
#319=VERTEX_POINT('',#1099);
#320=VERTEX_POINT('',#1101);
#321=VERTEX_POINT('',#1105);
#322=VERTEX_POINT('',#1107);
#323=VERTEX_POINT('',#1111);
#324=VERTEX_POINT('',#1113);
#325=VERTEX_POINT('',#1117);
#326=VERTEX_POINT('',#1119);
#327=VERTEX_POINT('',#1123);
#328=VERTEX_POINT('',#1125);
#329=VERTEX_POINT('',#1129);
#330=VERTEX_POINT('',#1131);
#331=VERTEX_POINT('',#1135);
#332=VERTEX_POINT('',#1136);
#333=VERTEX_POINT('',#1138);
#334=VERTEX_POINT('',#1140);
#335=VERTEX_POINT('',#1147);
#336=VERTEX_POINT('',#1152);
#337=VERTEX_POINT('',#1156);
#338=VERTEX_POINT('',#1160);
#339=VERTEX_POINT('',#1161);
#340=VERTEX_POINT('',#1172);
#341=VERTEX_POINT('',#1174);
#342=VERTEX_POINT('',#1176);
#343=VERTEX_POINT('',#1181);
#344=VERTEX_POINT('',#1183);
#345=EDGE_CURVE('',#281,#282,#113,.T.);
#346=EDGE_CURVE('',#283,#281,#114,.T.);
#347=EDGE_CURVE('',#284,#283,#115,.T.);
#348=EDGE_CURVE('',#282,#284,#116,.T.);
#349=EDGE_CURVE('',#285,#286,#117,.T.);
#350=EDGE_CURVE('',#287,#285,#118,.T.);
#351=EDGE_CURVE('',#288,#287,#119,.T.);
#352=EDGE_CURVE('',#286,#288,#120,.T.);
#353=EDGE_CURVE('',#285,#282,#121,.T.);
#354=EDGE_CURVE('',#281,#286,#122,.T.);
#355=EDGE_CURVE('',#289,#287,#123,.T.);
#356=EDGE_CURVE('',#290,#289,#124,.T.);
#357=EDGE_CURVE('',#288,#290,#125,.T.);
#358=EDGE_CURVE('',#291,#283,#126,.T.);
#359=EDGE_CURVE('',#292,#291,#127,.T.);
#360=EDGE_CURVE('',#284,#292,#128,.T.);
#361=EDGE_CURVE('',#293,#290,#129,.T.);
#362=EDGE_CURVE('',#293,#294,#130,.T.);
#363=EDGE_CURVE('',#294,#291,#131,.T.);
#364=EDGE_CURVE('',#295,#296,#132,.T.);
#365=EDGE_CURVE('',#297,#296,#133,.T.);
#366=EDGE_CURVE('',#298,#297,#134,.T.);
#367=EDGE_CURVE('',#298,#295,#135,.T.);
#368=EDGE_CURVE('',#296,#299,#13,.T.);
#369=EDGE_CURVE('',#299,#300,#136,.T.);
#370=EDGE_CURVE('',#297,#300,#14,.T.);
#371=EDGE_CURVE('',#301,#302,#15,.T.);
#372=EDGE_CURVE('',#303,#302,#137,.T.);
#373=EDGE_CURVE('',#304,#303,#16,.T.);
#374=EDGE_CURVE('',#301,#304,#138,.T.);
#375=EDGE_CURVE('',#302,#305,#139,.T.);
#376=EDGE_CURVE('',#306,#305,#140,.T.);
#377=EDGE_CURVE('',#303,#306,#141,.T.);
#378=EDGE_CURVE('',#305,#307,#17,.T.);
#379=EDGE_CURVE('',#308,#307,#142,.T.);
#380=EDGE_CURVE('',#306,#308,#18,.T.);
#381=EDGE_CURVE('',#307,#309,#143,.T.);
#382=EDGE_CURVE('',#310,#309,#144,.T.);
#383=EDGE_CURVE('',#308,#310,#145,.T.);
#384=EDGE_CURVE('',#309,#311,#146,.T.);
#385=EDGE_CURVE('',#312,#311,#147,.T.);
#386=EDGE_CURVE('',#310,#312,#148,.T.);
#387=EDGE_CURVE('',#311,#313,#149,.T.);
#388=EDGE_CURVE('',#314,#313,#150,.T.);
#389=EDGE_CURVE('',#312,#314,#151,.T.);
#390=EDGE_CURVE('',#313,#295,#19,.T.);
#391=EDGE_CURVE('',#314,#298,#20,.T.);
#392=EDGE_CURVE('',#315,#316,#21,.T.);
#393=EDGE_CURVE('',#317,#316,#152,.T.);
#394=EDGE_CURVE('',#318,#317,#22,.T.);
#395=EDGE_CURVE('',#318,#315,#153,.T.);
#396=EDGE_CURVE('',#319,#315,#154,.T.);
#397=EDGE_CURVE('',#320,#318,#155,.T.);
#398=EDGE_CURVE('',#320,#319,#156,.T.);
#399=EDGE_CURVE('',#321,#319,#157,.T.);
#400=EDGE_CURVE('',#322,#320,#158,.T.);
#401=EDGE_CURVE('',#322,#321,#159,.T.);
#402=EDGE_CURVE('',#323,#321,#160,.T.);
#403=EDGE_CURVE('',#324,#322,#161,.T.);
#404=EDGE_CURVE('',#324,#323,#162,.T.);
#405=EDGE_CURVE('',#325,#323,#23,.T.);
#406=EDGE_CURVE('',#326,#324,#24,.T.);
#407=EDGE_CURVE('',#326,#325,#163,.T.);
#408=EDGE_CURVE('',#327,#325,#164,.T.);
#409=EDGE_CURVE('',#328,#326,#165,.T.);
#410=EDGE_CURVE('',#328,#327,#166,.T.);
#411=EDGE_CURVE('',#329,#327,#25,.T.);
#412=EDGE_CURVE('',#330,#328,#26,.T.);
#413=EDGE_CURVE('',#329,#330,#167,.T.);
#414=EDGE_CURVE('',#331,#332,#27,.T.);
#415=EDGE_CURVE('',#333,#332,#168,.T.);
#416=EDGE_CURVE('',#334,#333,#28,.T.);
#417=EDGE_CURVE('',#334,#331,#169,.T.);
#418=EDGE_CURVE('',#316,#331,#170,.T.);
#419=EDGE_CURVE('',#317,#334,#171,.T.);
#420=EDGE_CURVE('',#304,#335,#172,.T.);
#421=EDGE_CURVE('',#335,#292,#173,.T.);
#422=EDGE_CURVE('',#294,#301,#174,.T.);
#423=EDGE_CURVE('',#332,#336,#175,.T.);
#424=EDGE_CURVE('',#336,#329,#176,.T.);
#425=EDGE_CURVE('',#336,#337,#177,.T.);
#426=EDGE_CURVE('',#337,#330,#178,.T.);
#427=EDGE_CURVE('',#338,#339,#179,.T.);
#428=EDGE_CURVE('',#300,#338,#180,.T.);
#429=EDGE_CURVE('',#299,#339,#181,.T.);
#430=EDGE_CURVE('',#337,#333,#182,.T.);
#431=EDGE_CURVE('',#304,#338,#183,.T.);
#432=EDGE_CURVE('',#339,#301,#184,.T.);
#433=EDGE_CURVE('',#340,#333,#185,.T.);
#434=EDGE_CURVE('',#340,#341,#186,.T.);
#435=EDGE_CURVE('',#341,#342,#187,.T.);
#436=EDGE_CURVE('',#293,#342,#188,.T.);
#437=EDGE_CURVE('',#332,#293,#189,.T.);
#438=EDGE_CURVE('',#294,#343,#190,.T.);
#439=EDGE_CURVE('',#343,#344,#191,.T.);
#440=EDGE_CURVE('',#335,#344,#192,.T.);
#441=EDGE_CURVE('',#344,#341,#193,.T.);
#442=EDGE_CURVE('',#335,#340,#194,.T.);
#443=EDGE_CURVE('',#342,#343,#195,.T.);
#444=EDGE_CURVE('',#340,#289,#196,.T.);
#445=ORIENTED_EDGE('',*,*,#345,.F.);
#446=ORIENTED_EDGE('',*,*,#346,.F.);
#447=ORIENTED_EDGE('',*,*,#347,.F.);
#448=ORIENTED_EDGE('',*,*,#348,.F.);
#449=ORIENTED_EDGE('',*,*,#349,.F.);
#450=ORIENTED_EDGE('',*,*,#350,.F.);
#451=ORIENTED_EDGE('',*,*,#351,.F.);
#452=ORIENTED_EDGE('',*,*,#352,.F.);
#453=ORIENTED_EDGE('',*,*,#345,.T.);
#454=ORIENTED_EDGE('',*,*,#353,.F.);
#455=ORIENTED_EDGE('',*,*,#349,.T.);
#456=ORIENTED_EDGE('',*,*,#354,.F.);
#457=ORIENTED_EDGE('',*,*,#351,.T.);
#458=ORIENTED_EDGE('',*,*,#355,.F.);
#459=ORIENTED_EDGE('',*,*,#356,.F.);
#460=ORIENTED_EDGE('',*,*,#357,.F.);
#461=ORIENTED_EDGE('',*,*,#347,.T.);
#462=ORIENTED_EDGE('',*,*,#358,.F.);
#463=ORIENTED_EDGE('',*,*,#359,.F.);
#464=ORIENTED_EDGE('',*,*,#360,.F.);
#465=ORIENTED_EDGE('',*,*,#346,.T.);
#466=ORIENTED_EDGE('',*,*,#354,.T.);
#467=ORIENTED_EDGE('',*,*,#352,.T.);
#468=ORIENTED_EDGE('',*,*,#357,.T.);
#469=ORIENTED_EDGE('',*,*,#361,.F.);
#470=ORIENTED_EDGE('',*,*,#362,.T.);
#471=ORIENTED_EDGE('',*,*,#363,.T.);
#472=ORIENTED_EDGE('',*,*,#358,.T.);
#473=ORIENTED_EDGE('',*,*,#364,.T.);
#474=ORIENTED_EDGE('',*,*,#365,.F.);
#475=ORIENTED_EDGE('',*,*,#366,.F.);
#476=ORIENTED_EDGE('',*,*,#367,.T.);
#477=ORIENTED_EDGE('',*,*,#368,.T.);
#478=ORIENTED_EDGE('',*,*,#369,.T.);
#479=ORIENTED_EDGE('',*,*,#370,.F.);
#480=ORIENTED_EDGE('',*,*,#365,.T.);
#481=ORIENTED_EDGE('',*,*,#371,.T.);
#482=ORIENTED_EDGE('',*,*,#372,.F.);
#483=ORIENTED_EDGE('',*,*,#373,.F.);
#484=ORIENTED_EDGE('',*,*,#374,.F.);
#485=ORIENTED_EDGE('',*,*,#375,.T.);
#486=ORIENTED_EDGE('',*,*,#376,.F.);
#487=ORIENTED_EDGE('',*,*,#377,.F.);
#488=ORIENTED_EDGE('',*,*,#372,.T.);
#489=ORIENTED_EDGE('',*,*,#378,.T.);
#490=ORIENTED_EDGE('',*,*,#379,.F.);
#491=ORIENTED_EDGE('',*,*,#380,.F.);
#492=ORIENTED_EDGE('',*,*,#376,.T.);
#493=ORIENTED_EDGE('',*,*,#381,.T.);
#494=ORIENTED_EDGE('',*,*,#382,.F.);
#495=ORIENTED_EDGE('',*,*,#383,.F.);
#496=ORIENTED_EDGE('',*,*,#379,.T.);
#497=ORIENTED_EDGE('',*,*,#384,.T.);
#498=ORIENTED_EDGE('',*,*,#385,.F.);
#499=ORIENTED_EDGE('',*,*,#386,.F.);
#500=ORIENTED_EDGE('',*,*,#382,.T.);
#501=ORIENTED_EDGE('',*,*,#387,.T.);
#502=ORIENTED_EDGE('',*,*,#388,.F.);
#503=ORIENTED_EDGE('',*,*,#389,.F.);
#504=ORIENTED_EDGE('',*,*,#385,.T.);
#505=ORIENTED_EDGE('',*,*,#390,.T.);
#506=ORIENTED_EDGE('',*,*,#367,.F.);
#507=ORIENTED_EDGE('',*,*,#391,.F.);
#508=ORIENTED_EDGE('',*,*,#388,.T.);
#509=ORIENTED_EDGE('',*,*,#392,.T.);
#510=ORIENTED_EDGE('',*,*,#393,.F.);
#511=ORIENTED_EDGE('',*,*,#394,.F.);
#512=ORIENTED_EDGE('',*,*,#395,.T.);
#513=ORIENTED_EDGE('',*,*,#396,.T.);
#514=ORIENTED_EDGE('',*,*,#395,.F.);
#515=ORIENTED_EDGE('',*,*,#397,.F.);
#516=ORIENTED_EDGE('',*,*,#398,.T.);
#517=ORIENTED_EDGE('',*,*,#399,.T.);
#518=ORIENTED_EDGE('',*,*,#398,.F.);
#519=ORIENTED_EDGE('',*,*,#400,.F.);
#520=ORIENTED_EDGE('',*,*,#401,.T.);
#521=ORIENTED_EDGE('',*,*,#402,.T.);
#522=ORIENTED_EDGE('',*,*,#401,.F.);
#523=ORIENTED_EDGE('',*,*,#403,.F.);
#524=ORIENTED_EDGE('',*,*,#404,.T.);
#525=ORIENTED_EDGE('',*,*,#405,.T.);
#526=ORIENTED_EDGE('',*,*,#404,.F.);
#527=ORIENTED_EDGE('',*,*,#406,.F.);
#528=ORIENTED_EDGE('',*,*,#407,.T.);
#529=ORIENTED_EDGE('',*,*,#408,.T.);
#530=ORIENTED_EDGE('',*,*,#407,.F.);
#531=ORIENTED_EDGE('',*,*,#409,.F.);
#532=ORIENTED_EDGE('',*,*,#410,.T.);
#533=ORIENTED_EDGE('',*,*,#411,.T.);
#534=ORIENTED_EDGE('',*,*,#410,.F.);
#535=ORIENTED_EDGE('',*,*,#412,.F.);
#536=ORIENTED_EDGE('',*,*,#413,.F.);
#537=ORIENTED_EDGE('',*,*,#414,.T.);
#538=ORIENTED_EDGE('',*,*,#415,.F.);
#539=ORIENTED_EDGE('',*,*,#416,.F.);
#540=ORIENTED_EDGE('',*,*,#417,.T.);
#541=ORIENTED_EDGE('',*,*,#418,.T.);
#542=ORIENTED_EDGE('',*,*,#417,.F.);
#543=ORIENTED_EDGE('',*,*,#419,.F.);
#544=ORIENTED_EDGE('',*,*,#393,.T.);
#545=ORIENTED_EDGE('',*,*,#374,.T.);
#546=ORIENTED_EDGE('',*,*,#420,.T.);
#547=ORIENTED_EDGE('',*,*,#421,.T.);
#548=ORIENTED_EDGE('',*,*,#359,.T.);
#549=ORIENTED_EDGE('',*,*,#363,.F.);
#550=ORIENTED_EDGE('',*,*,#422,.T.);
#551=ORIENTED_EDGE('',*,*,#423,.F.);
#552=ORIENTED_EDGE('',*,*,#414,.F.);
#553=ORIENTED_EDGE('',*,*,#418,.F.);
#554=ORIENTED_EDGE('',*,*,#392,.F.);
#555=ORIENTED_EDGE('',*,*,#396,.F.);
#556=ORIENTED_EDGE('',*,*,#399,.F.);
#557=ORIENTED_EDGE('',*,*,#402,.F.);
#558=ORIENTED_EDGE('',*,*,#405,.F.);
#559=ORIENTED_EDGE('',*,*,#408,.F.);
#560=ORIENTED_EDGE('',*,*,#411,.F.);
#561=ORIENTED_EDGE('',*,*,#424,.F.);
#562=ORIENTED_EDGE('',*,*,#425,.F.);
#563=ORIENTED_EDGE('',*,*,#424,.T.);
#564=ORIENTED_EDGE('',*,*,#413,.T.);
#565=ORIENTED_EDGE('',*,*,#426,.F.);
#566=ORIENTED_EDGE('',*,*,#427,.F.);
#567=ORIENTED_EDGE('',*,*,#428,.F.);
#568=ORIENTED_EDGE('',*,*,#369,.F.);
#569=ORIENTED_EDGE('',*,*,#429,.T.);
#570=ORIENTED_EDGE('',*,*,#430,.F.);
#571=ORIENTED_EDGE('',*,*,#426,.T.);
#572=ORIENTED_EDGE('',*,*,#412,.T.);
#573=ORIENTED_EDGE('',*,*,#409,.T.);
#574=ORIENTED_EDGE('',*,*,#406,.T.);
#575=ORIENTED_EDGE('',*,*,#403,.T.);
#576=ORIENTED_EDGE('',*,*,#400,.T.);
#577=ORIENTED_EDGE('',*,*,#397,.T.);
#578=ORIENTED_EDGE('',*,*,#394,.T.);
#579=ORIENTED_EDGE('',*,*,#419,.T.);
#580=ORIENTED_EDGE('',*,*,#416,.T.);
#581=ORIENTED_EDGE('',*,*,#431,.F.);
#582=ORIENTED_EDGE('',*,*,#373,.T.);
#583=ORIENTED_EDGE('',*,*,#377,.T.);
#584=ORIENTED_EDGE('',*,*,#380,.T.);
#585=ORIENTED_EDGE('',*,*,#383,.T.);
#586=ORIENTED_EDGE('',*,*,#386,.T.);
#587=ORIENTED_EDGE('',*,*,#389,.T.);
#588=ORIENTED_EDGE('',*,*,#391,.T.);
#589=ORIENTED_EDGE('',*,*,#366,.T.);
#590=ORIENTED_EDGE('',*,*,#370,.T.);
#591=ORIENTED_EDGE('',*,*,#428,.T.);
#592=ORIENTED_EDGE('',*,*,#432,.F.);
#593=ORIENTED_EDGE('',*,*,#429,.F.);
#594=ORIENTED_EDGE('',*,*,#368,.F.);
#595=ORIENTED_EDGE('',*,*,#364,.F.);
#596=ORIENTED_EDGE('',*,*,#390,.F.);
#597=ORIENTED_EDGE('',*,*,#387,.F.);
#598=ORIENTED_EDGE('',*,*,#384,.F.);
#599=ORIENTED_EDGE('',*,*,#381,.F.);
#600=ORIENTED_EDGE('',*,*,#378,.F.);
#601=ORIENTED_EDGE('',*,*,#375,.F.);
#602=ORIENTED_EDGE('',*,*,#371,.F.);
#603=ORIENTED_EDGE('',*,*,#423,.T.);
#604=ORIENTED_EDGE('',*,*,#425,.T.);
#605=ORIENTED_EDGE('',*,*,#430,.T.);
#606=ORIENTED_EDGE('',*,*,#433,.F.);
#607=ORIENTED_EDGE('',*,*,#434,.T.);
#608=ORIENTED_EDGE('',*,*,#435,.T.);
#609=ORIENTED_EDGE('',*,*,#436,.F.);
#610=ORIENTED_EDGE('',*,*,#437,.F.);
#611=ORIENTED_EDGE('',*,*,#432,.T.);
#612=ORIENTED_EDGE('',*,*,#422,.F.);
#613=ORIENTED_EDGE('',*,*,#438,.T.);
#614=ORIENTED_EDGE('',*,*,#439,.T.);
#615=ORIENTED_EDGE('',*,*,#440,.F.);
#616=ORIENTED_EDGE('',*,*,#420,.F.);
#617=ORIENTED_EDGE('',*,*,#431,.T.);
#618=ORIENTED_EDGE('',*,*,#427,.T.);
#619=ORIENTED_EDGE('',*,*,#441,.T.);
#620=ORIENTED_EDGE('',*,*,#434,.F.);
#621=ORIENTED_EDGE('',*,*,#442,.F.);
#622=ORIENTED_EDGE('',*,*,#440,.T.);
#623=ORIENTED_EDGE('',*,*,#443,.T.);
#624=ORIENTED_EDGE('',*,*,#438,.F.);
#625=ORIENTED_EDGE('',*,*,#362,.F.);
#626=ORIENTED_EDGE('',*,*,#436,.T.);
#627=ORIENTED_EDGE('',*,*,#439,.F.);
#628=ORIENTED_EDGE('',*,*,#443,.F.);
#629=ORIENTED_EDGE('',*,*,#435,.F.);
#630=ORIENTED_EDGE('',*,*,#441,.F.);
#631=ORIENTED_EDGE('',*,*,#415,.T.);
#632=ORIENTED_EDGE('',*,*,#437,.T.);
#633=ORIENTED_EDGE('',*,*,#361,.T.);
#634=ORIENTED_EDGE('',*,*,#356,.T.);
#635=ORIENTED_EDGE('',*,*,#444,.F.);
#636=ORIENTED_EDGE('',*,*,#433,.T.);
#637=ORIENTED_EDGE('',*,*,#348,.T.);
#638=ORIENTED_EDGE('',*,*,#360,.T.);
#639=ORIENTED_EDGE('',*,*,#421,.F.);
#640=ORIENTED_EDGE('',*,*,#442,.T.);
#641=ORIENTED_EDGE('',*,*,#444,.T.);
#642=ORIENTED_EDGE('',*,*,#355,.T.);
#643=ORIENTED_EDGE('',*,*,#350,.T.);
#644=ORIENTED_EDGE('',*,*,#353,.T.);
#645=PLANE('',#744);
#646=PLANE('',#745);
#647=PLANE('',#746);
#648=PLANE('',#747);
#649=PLANE('',#748);
#650=PLANE('',#749);
#651=PLANE('',#750);
#652=PLANE('',#757);
#653=PLANE('',#761);
#654=PLANE('',#762);
#655=PLANE('',#763);
#656=PLANE('',#770);
#657=PLANE('',#771);
#658=PLANE('',#772);
#659=PLANE('',#776);
#660=PLANE('',#783);
#661=PLANE('',#784);
#662=PLANE('',#785);
#663=PLANE('',#786);
#664=PLANE('',#787);
#665=PLANE('',#788);
#666=PLANE('',#789);
#667=PLANE('',#790);
#668=PLANE('',#791);
#669=PLANE('',#792);
#670=PLANE('',#793);
#671=PLANE('',#794);
#672=PLANE('',#795);
#673=PLANE('',#796);
#674=PLANE('',#797);
#675=STYLED_ITEM('',(#1217),#703);
#676=STYLED_ITEM('',(#1217),#704);
#677=STYLED_ITEM('',(#1217),#705);
#678=STYLED_ITEM('',(#1217),#709);
#679=STYLED_ITEM('',(#1217),#710);
#680=STYLED_ITEM('',(#1217),#711);
#681=STYLED_ITEM('',(#1217),#712);
#682=STYLED_ITEM('',(#1217),#713);
#683=STYLED_ITEM('',(#1217),#714);
#684=STYLED_ITEM('',(#1217),#715);
#685=STYLED_ITEM('',(#1217),#716);
#686=STYLED_ITEM('',(#1217),#717);
#687=STYLED_ITEM('',(#1217),#718);
#688=STYLED_ITEM('',(#1217),#719);
#689=STYLED_ITEM('',(#1217),#720);
#690=STYLED_ITEM('',(#1217),#721);
#691=STYLED_ITEM('',(#1217),#722);
#692=STYLED_ITEM('',(#1217),#723);
#693=STYLED_ITEM('',(#1217),#724);
#694=STYLED_ITEM('',(#1217),#725);
#695=STYLED_ITEM('',(#1217),#726);
#696=STYLED_ITEM('',(#1217),#728);
#697=STYLED_ITEM('',(#1217),#729);
#698=STYLED_ITEM('',(#1217),#730);
#699=STYLED_ITEM('',(#1217),#731);
#700=STYLED_ITEM('',(#1217),#732);
#701=STYLED_ITEM('',(#1217),#733);
#702=STYLED_ITEM('',(#1216),#742);
#703=ADVANCED_FACE('',(#37),#645,.F.);
#704=ADVANCED_FACE('',(#38),#646,.F.);
#705=ADVANCED_FACE('',(#39),#647,.T.);
#706=ADVANCED_FACE('',(#40),#648,.T.);
#707=ADVANCED_FACE('',(#41),#649,.T.);
#708=ADVANCED_FACE('',(#42),#650,.T.);
#709=ADVANCED_FACE('',(#43),#651,.T.);
#710=ADVANCED_FACE('',(#44),#29,.F.);
#711=ADVANCED_FACE('',(#45),#30,.T.);
#712=ADVANCED_FACE('',(#46),#652,.T.);
#713=ADVANCED_FACE('',(#47),#31,.F.);
#714=ADVANCED_FACE('',(#48),#653,.T.);
#715=ADVANCED_FACE('',(#49),#654,.T.);
#716=ADVANCED_FACE('',(#50),#655,.T.);
#717=ADVANCED_FACE('',(#51),#32,.T.);
#718=ADVANCED_FACE('',(#52),#33,.F.);
#719=ADVANCED_FACE('',(#53),#656,.T.);
#720=ADVANCED_FACE('',(#54),#657,.T.);
#721=ADVANCED_FACE('',(#55),#658,.T.);
#722=ADVANCED_FACE('',(#56),#34,.T.);
#723=ADVANCED_FACE('',(#57),#659,.T.);
#724=ADVANCED_FACE('',(#58),#35,.F.);
#725=ADVANCED_FACE('',(#59),#36,.T.);
#726=ADVANCED_FACE('',(#60),#660,.T.);
#727=ADVANCED_FACE('',(#61),#661,.T.);
#728=ADVANCED_FACE('',(#62),#662,.T.);
#729=ADVANCED_FACE('',(#63),#663,.T.);
#730=ADVANCED_FACE('',(#64),#664,.T.);
#731=ADVANCED_FACE('',(#65),#665,.T.);
#732=ADVANCED_FACE('',(#66),#666,.T.);
#733=ADVANCED_FACE('',(#67),#667,.T.);
#734=ADVANCED_FACE('',(#68),#668,.T.);
#735=ADVANCED_FACE('',(#69),#669,.T.);
#736=ADVANCED_FACE('',(#70),#670,.T.);
#737=ADVANCED_FACE('',(#71),#671,.T.);
#738=ADVANCED_FACE('',(#72),#672,.F.);
#739=ADVANCED_FACE('',(#73),#673,.T.);
#740=ADVANCED_FACE('',(#74),#674,.T.);
#741=CLOSED_SHELL('',(#703,#704,#705,#706,#707,#708,#709,#710,#711,#712,
#713,#714,#715,#716,#717,#718,#719,#720,#721,#722,#723,#724,#725,#726,#727,
#728,#729,#730,#731,#732,#733,#734,#735,#736,#737,#738,#739,#740));
#742=MANIFOLD_SOLID_BREP('Volumenk\X\F6rper1',#741);
#743=AXIS2_PLACEMENT_3D('placement',#992,#798,#799);
#744=AXIS2_PLACEMENT_3D('',#993,#800,#801);
#745=AXIS2_PLACEMENT_3D('',#1002,#806,#807);
#746=AXIS2_PLACEMENT_3D('',#1011,#812,#813);
#747=AXIS2_PLACEMENT_3D('',#1014,#816,#817);
#748=AXIS2_PLACEMENT_3D('',#1020,#821,#822);
#749=AXIS2_PLACEMENT_3D('',#1026,#826,#827);
#750=AXIS2_PLACEMENT_3D('',#1032,#831,#832);
#751=AXIS2_PLACEMENT_3D('',#1041,#837,#838);
#752=AXIS2_PLACEMENT_3D('',#1043,#839,#840);
#753=AXIS2_PLACEMENT_3D('',#1046,#842,#843);
#754=AXIS2_PLACEMENT_3D('',#1047,#844,#845);
#755=AXIS2_PLACEMENT_3D('',#1050,#846,#847);
#756=AXIS2_PLACEMENT_3D('',#1054,#849,#850);
#757=AXIS2_PLACEMENT_3D('',#1056,#852,#853);
#758=AXIS2_PLACEMENT_3D('',#1062,#857,#858);
#759=AXIS2_PLACEMENT_3D('',#1064,#859,#860);
#760=AXIS2_PLACEMENT_3D('',#1067,#862,#863);
#761=AXIS2_PLACEMENT_3D('',#1068,#864,#865);
#762=AXIS2_PLACEMENT_3D('',#1074,#869,#870);
#763=AXIS2_PLACEMENT_3D('',#1080,#874,#875);
#764=AXIS2_PLACEMENT_3D('',#1086,#879,#880);
#765=AXIS2_PLACEMENT_3D('',#1087,#881,#882);
#766=AXIS2_PLACEMENT_3D('',#1088,#883,#884);
#767=AXIS2_PLACEMENT_3D('',#1089,#885,#886);
#768=AXIS2_PLACEMENT_3D('',#1092,#887,#888);
#769=AXIS2_PLACEMENT_3D('',#1096,#890,#891);
#770=AXIS2_PLACEMENT_3D('',#1098,#893,#894);
#771=AXIS2_PLACEMENT_3D('',#1104,#898,#899);
#772=AXIS2_PLACEMENT_3D('',#1110,#903,#904);
#773=AXIS2_PLACEMENT_3D('',#1116,#908,#909);
#774=AXIS2_PLACEMENT_3D('',#1118,#910,#911);
#775=AXIS2_PLACEMENT_3D('',#1120,#912,#913);
#776=AXIS2_PLACEMENT_3D('',#1122,#915,#916);
#777=AXIS2_PLACEMENT_3D('',#1128,#920,#921);
#778=AXIS2_PLACEMENT_3D('',#1130,#922,#923);
#779=AXIS2_PLACEMENT_3D('',#1132,#924,#925);
#780=AXIS2_PLACEMENT_3D('',#1134,#927,#928);
#781=AXIS2_PLACEMENT_3D('',#1137,#929,#930);
#782=AXIS2_PLACEMENT_3D('',#1141,#932,#933);
#783=AXIS2_PLACEMENT_3D('',#1143,#935,#936);
#784=AXIS2_PLACEMENT_3D('',#1146,#939,#940);
#785=AXIS2_PLACEMENT_3D('',#1151,#944,#945);
#786=AXIS2_PLACEMENT_3D('',#1155,#948,#949);
#787=AXIS2_PLACEMENT_3D('',#1159,#952,#953);
#788=AXIS2_PLACEMENT_3D('',#1165,#957,#958);
#789=AXIS2_PLACEMENT_3D('',#1167,#960,#961);
#790=AXIS2_PLACEMENT_3D('',#1169,#963,#964);
#791=AXIS2_PLACEMENT_3D('',#1171,#966,#967);
#792=AXIS2_PLACEMENT_3D('',#1180,#973,#974);
#793=AXIS2_PLACEMENT_3D('',#1186,#978,#979);
#794=AXIS2_PLACEMENT_3D('',#1189,#982,#983);
#795=AXIS2_PLACEMENT_3D('',#1191,#985,#986);
#796=AXIS2_PLACEMENT_3D('',#1192,#987,#988);
#797=AXIS2_PLACEMENT_3D('',#1194,#990,#991);
#798=DIRECTION('axis',(0.,0.,1.));
#799=DIRECTION('refdir',(1.,0.,0.));
#800=DIRECTION('center_axis',(1.,0.,0.));
#801=DIRECTION('ref_axis',(0.,0.,-1.));
#802=DIRECTION('',(0.,1.,0.));
#803=DIRECTION('',(0.,0.,-1.));
#804=DIRECTION('',(0.,-1.,0.));
#805=DIRECTION('',(0.,0.,1.));
#806=DIRECTION('center_axis',(-1.,0.,0.));
#807=DIRECTION('ref_axis',(0.,0.,1.));
#808=DIRECTION('',(0.,-1.,0.));
#809=DIRECTION('',(0.,0.,-1.));
#810=DIRECTION('',(0.,1.,0.));
#811=DIRECTION('',(0.,0.,1.));
#812=DIRECTION('center_axis',(-8.18663952479827E-030,-4.41131152966505E-047,
1.));
#813=DIRECTION('ref_axis',(1.,0.,0.));
#814=DIRECTION('',(1.,-2.05596856412066E-016,8.18663952479827E-030));
#815=DIRECTION('',(-1.,-2.05596856412066E-016,-8.18663952479827E-030));
#816=DIRECTION('center_axis',(0.,0.,1.));
#817=DIRECTION('ref_axis',(1.,0.,0.));
#818=DIRECTION('',(1.,-2.05596856412066E-016,0.));
#819=DIRECTION('',(0.,1.,0.));
#820=DIRECTION('',(-1.,-2.05596856412066E-016,0.));
#821=DIRECTION('center_axis',(0.,0.,1.));
#822=DIRECTION('ref_axis',(1.,0.,0.));
#823=DIRECTION('',(-1.,-2.05596856412066E-016,0.));
#824=DIRECTION('',(0.,-1.,0.));
#825=DIRECTION('',(1.,-2.05596856412066E-016,0.));
#826=DIRECTION('center_axis',(2.05596856412066E-016,-1.,0.));
#827=DIRECTION('ref_axis',(0.,0.,-1.));
#828=DIRECTION('',(0.,0.,1.));
#829=DIRECTION('',(1.,2.05596856412066E-016,0.));
#830=DIRECTION('',(0.,0.,1.));
#831=DIRECTION('center_axis',(-0.997564050259824,0.,-0.0697564737441252));
#832=DIRECTION('ref_axis',(0.0697564737441252,0.,-0.997564050259824));
#833=DIRECTION('',(-0.0697564737441252,-1.10751857713678E-015,0.997564050259824));
#834=DIRECTION('',(0.,-1.,0.));
#835=DIRECTION('',(-0.0697564737441252,0.,0.997564050259824));
#836=DIRECTION('',(0.,-1.,0.));
#837=DIRECTION('center_axis',(0.,-1.,0.));
#838=DIRECTION('ref_axis',(0.,0.,-1.));
#839=DIRECTION('center_axis',(0.,-1.,-1.11022302462516E-015));
#840=DIRECTION('ref_axis',(0.,0.,-1.));
#841=DIRECTION('',(0.,1.,0.));
#842=DIRECTION('center_axis',(0.,-1.,0.));
#843=DIRECTION('ref_axis',(0.,0.,-1.));
#844=DIRECTION('center_axis',(0.,-1.,0.));
#845=DIRECTION('ref_axis',(-1.83697019872103E-016,0.,1.));
#846=DIRECTION('center_axis',(0.,1.,1.11022302462516E-015));
#847=DIRECTION('ref_axis',(-1.83697019872103E-016,0.,1.));
#848=DIRECTION('',(0.,-1.,0.));
#849=DIRECTION('center_axis',(0.,1.,0.));
#850=DIRECTION('ref_axis',(-1.83697019872103E-016,0.,1.));
#851=DIRECTION('',(0.,1.,0.));
#852=DIRECTION('center_axis',(0.997564050259824,0.,0.0697564737441252));
#853=DIRECTION('ref_axis',(-0.0697564737441252,0.,0.997564050259824));
#854=DIRECTION('',(0.0697564737441252,1.10751857713678E-015,-0.997564050259824));
#855=DIRECTION('',(0.,-1.,0.));
#856=DIRECTION('',(0.0697564737441252,0.,-0.997564050259824));
#857=DIRECTION('center_axis',(0.,-1.,0.));
#858=DIRECTION('ref_axis',(0.0348994967025012,0.,0.999390827019096));
#859=DIRECTION('center_axis',(0.,-1.,-1.11022302462516E-015));
#860=DIRECTION('ref_axis',(0.0348994967025012,0.,0.999390827019096));
#861=DIRECTION('',(0.,-1.,0.));
#862=DIRECTION('center_axis',(0.,-1.,0.));
#863=DIRECTION('ref_axis',(0.0348994967025012,0.,0.999390827019096));
#864=DIRECTION('center_axis',(0.0348994967025012,0.,0.999390827019096));
#865=DIRECTION('ref_axis',(-0.999390827019096,0.,0.0348994967025012));
#866=DIRECTION('',(0.999390827019096,3.87462247869465E-017,-0.0348994967025012));
#867=DIRECTION('',(0.,-1.,0.));
#868=DIRECTION('',(0.999390827019096,0.,-0.0348994967025012));
#869=DIRECTION('center_axis',(0.999390827019096,0.,-0.0348994967025007));
#870=DIRECTION('ref_axis',(0.0348994967025007,0.,0.999390827019096));
#871=DIRECTION('',(-0.0348994967025007,1.10954670675578E-015,-0.999390827019096));
#872=DIRECTION('',(0.,-1.,0.));
#873=DIRECTION('',(-0.0348994967025007,0.,-0.999390827019096));
#874=DIRECTION('center_axis',(-0.0348994967025012,0.,-0.999390827019096));
#875=DIRECTION('ref_axis',(0.999390827019096,0.,-0.0348994967025012));
#876=DIRECTION('',(-0.999390827019096,-3.87462247869465E-017,0.0348994967025012));
#877=DIRECTION('',(0.,-1.,0.));
#878=DIRECTION('',(-0.999390827019096,0.,0.0348994967025012));
#879=DIRECTION('center_axis',(0.,-1.,0.));
#880=DIRECTION('ref_axis',(-0.034899496702501,0.,-0.999390827019096));
#881=DIRECTION('center_axis',(0.,1.,1.11022302462516E-015));
#882=DIRECTION('ref_axis',(-0.034899496702501,0.,-0.999390827019096));
#883=DIRECTION('center_axis',(0.,1.,0.));
#884=DIRECTION('ref_axis',(-0.034899496702501,0.,-0.999390827019096));
#885=DIRECTION('center_axis',(0.,-1.,0.));
#886=DIRECTION('ref_axis',(-0.997564050259824,0.,0.0697564737441251));
#887=DIRECTION('center_axis',(0.,-1.,-1.11022302462516E-015));
#888=DIRECTION('ref_axis',(-0.997564050259824,0.,0.0697564737441251));
#889=DIRECTION('',(0.,-1.,0.));
#890=DIRECTION('center_axis',(0.,-1.,0.));
#891=DIRECTION('ref_axis',(-0.997564050259824,0.,0.0697564737441251));
#892=DIRECTION('',(0.,-1.,0.));
#893=DIRECTION('center_axis',(-0.0348994967025011,0.,0.999390827019096));
#894=DIRECTION('ref_axis',(-0.999390827019096,0.,-0.0348994967025011));
#895=DIRECTION('',(0.999390827019096,-3.87462247869465E-017,0.0348994967025011));
#896=DIRECTION('',(0.999390827019096,0.,0.0348994967025011));
#897=DIRECTION('',(0.,-1.,0.));
#898=DIRECTION('center_axis',(-0.999390827019096,0.,-0.0348994967025007));
#899=DIRECTION('ref_axis',(0.0348994967025007,0.,-0.999390827019096));
#900=DIRECTION('',(-0.0348994967025007,-1.10954670675578E-015,0.999390827019096));
#901=DIRECTION('',(-0.0348994967025007,0.,0.999390827019096));
#902=DIRECTION('',(0.,-1.,0.));
#903=DIRECTION('center_axis',(0.0348994967025011,0.,-0.999390827019096));
#904=DIRECTION('ref_axis',(0.999390827019096,0.,0.0348994967025011));
#905=DIRECTION('',(-0.999390827019096,3.87462247869465E-017,-0.0348994967025011));
#906=DIRECTION('',(-0.999390827019096,0.,-0.0348994967025011));
#907=DIRECTION('',(0.,-1.,0.));
#908=DIRECTION('center_axis',(0.,-1.,0.));
#909=DIRECTION('ref_axis',(0.997564050259824,0.,-0.0697564737441253));
#910=DIRECTION('center_axis',(0.,1.,1.11022302462516E-015));
#911=DIRECTION('ref_axis',(0.997564050259824,0.,-0.0697564737441253));
#912=DIRECTION('center_axis',(0.,1.,0.));
#913=DIRECTION('ref_axis',(0.997564050259824,0.,-0.0697564737441253));
#914=DIRECTION('',(0.,-1.,0.));
#915=DIRECTION('center_axis',(0.997564050259824,0.,-0.0697564737441261));
#916=DIRECTION('ref_axis',(0.0697564737441261,0.,0.997564050259824));
#917=DIRECTION('',(-0.0697564737441261,1.10751857713678E-015,-0.997564050259824));
#918=DIRECTION('',(-0.0697564737441261,0.,-0.997564050259824));
#919=DIRECTION('',(0.,-1.,0.));
#920=DIRECTION('center_axis',(0.,-1.,0.));
#921=DIRECTION('ref_axis',(0.997564050259824,0.,-0.0697564737441254));
#922=DIRECTION('center_axis',(0.,-1.,-1.11022302462516E-015));
#923=DIRECTION('ref_axis',(0.997564050259824,0.,-0.0697564737441254));
#924=DIRECTION('center_axis',(0.,-1.,0.));
#925=DIRECTION('ref_axis',(0.997564050259824,0.,-0.0697564737441254));
#926=DIRECTION('',(0.,1.,0.));
#927=DIRECTION('center_axis',(0.,-1.,0.));
#928=DIRECTION('ref_axis',(-0.997564050259824,0.,0.0697564737441253));
#929=DIRECTION('center_axis',(0.,1.,1.11022302462516E-015));
#930=DIRECTION('ref_axis',(-0.997564050259824,0.,0.0697564737441253));
#931=DIRECTION('',(0.,-1.,0.));
#932=DIRECTION('center_axis',(0.,1.,0.));
#933=DIRECTION('ref_axis',(-0.997564050259824,0.,0.0697564737441253));
#934=DIRECTION('',(0.,-1.,0.));
#935=DIRECTION('center_axis',(-0.997564050259824,0.,0.0697564737441237));
#936=DIRECTION('ref_axis',(-0.0697564737441237,0.,-0.997564050259824));
#937=DIRECTION('',(0.0697564737441237,-1.10751857713678E-015,0.997564050259824));
#938=DIRECTION('',(0.0697564737441237,0.,0.997564050259824));
#939=DIRECTION('center_axis',(1.,0.,0.));
#940=DIRECTION('ref_axis',(0.,0.,-1.));
#941=DIRECTION('',(0.,1.,0.));
#942=DIRECTION('',(0.,0.,1.));
#943=DIRECTION('',(0.,1.,0.));
#944=DIRECTION('center_axis',(0.,-1.,-1.11022302462516E-015));
#945=DIRECTION('ref_axis',(0.,-1.11022302462516E-015,1.));
#946=DIRECTION('',(0.0871557427476583,1.10599829083096E-015,-0.996194698091746));
#947=DIRECTION('',(-1.,0.,0.));
#948=DIRECTION('center_axis',(0.,0.,-1.));
#949=DIRECTION('ref_axis',(0.,-1.,0.));
#950=DIRECTION('',(1.79068229778251E-016,1.,0.));
#951=DIRECTION('',(-1.,0.,0.));
#952=DIRECTION('center_axis',(0.,0.,-1.));
#953=DIRECTION('ref_axis',(0.,-1.,0.));
#954=DIRECTION('',(-1.79068229778251E-016,-1.,0.));
#955=DIRECTION('',(-1.,0.,0.));
#956=DIRECTION('',(-1.,0.,0.));
#957=DIRECTION('center_axis',(0.,1.,0.));
#958=DIRECTION('ref_axis',(0.,0.,-1.));
#959=DIRECTION('',(-0.0871557427476583,0.,0.996194698091746));
#960=DIRECTION('center_axis',(0.,1.,0.));
#961=DIRECTION('ref_axis',(0.,0.,-1.));
#962=DIRECTION('',(-0.0871557427476583,0.,-0.996194698091746));
#963=DIRECTION('center_axis',(0.,-1.,-1.11022302462516E-015));
#964=DIRECTION('ref_axis',(0.,-1.11022302462516E-015,1.));
#965=DIRECTION('',(0.0871557427476583,-1.10599829083096E-015,0.996194698091746));
#966=DIRECTION('center_axis',(-0.996194698091746,1.78386821101768E-016,
-0.0871557427476583));
#967=DIRECTION('ref_axis',(1.77635683940025E-016,1.,0.));
#968=DIRECTION('',(0.,-1.,0.));
#969=DIRECTION('',(0.0868265938642477,-0.0868265938642476,-0.992432509138967));
#970=DIRECTION('',(-1.79068229778251E-016,-1.,0.));
#971=DIRECTION('',(0.0868265938642478,0.0868265938642475,-0.992432509138967));
#972=DIRECTION('',(0.,-1.,0.));
#973=DIRECTION('center_axis',(0.996194698091746,-1.78386821101768E-016,
-0.0871557427476583));
#974=DIRECTION('ref_axis',(-1.77635683940025E-016,-1.,0.));
#975=DIRECTION('',(-0.0868265938642477,0.0868265938642475,-0.992432509138967));
#976=DIRECTION('',(1.79068229778251E-016,1.,0.));
#977=DIRECTION('',(-0.0868265938642478,-0.0868265938642475,-0.992432509138967));
#978=DIRECTION('center_axis',(3.58425372028553E-016,0.996194698091746,-0.0871557427476581));
#979=DIRECTION('ref_axis',(1.,-3.5527136788005E-016,0.));
#980=DIRECTION('',(-1.,3.59794498721116E-016,0.));
#981=DIRECTION('',(-1.,2.05596856412066E-016,0.));
#982=DIRECTION('center_axis',(5.12036245755075E-017,-0.996194698091746,
-0.0871557427476581));
#983=DIRECTION('ref_axis',(-1.,-5.55111512312578E-017,0.));
#984=DIRECTION('',(1.,5.13992141030165E-017,0.));
#985=DIRECTION('center_axis',(0.,0.,1.));
#986=DIRECTION('ref_axis',(1.,0.,0.));
#987=DIRECTION('center_axis',(-1.,0.,0.));
#988=DIRECTION('ref_axis',(0.,0.,1.));
#989=DIRECTION('',(0.,0.,1.));
#990=DIRECTION('center_axis',(2.05596856412066E-016,1.,0.));
#991=DIRECTION('ref_axis',(0.,0.,1.));
#992=CARTESIAN_POINT('',(0.,0.,0.));
#993=CARTESIAN_POINT('Origin',(-0.67,-0.775,0.55));
#994=CARTESIAN_POINT('',(-0.67,-0.775,0.545));
#995=CARTESIAN_POINT('',(-0.67,0.775,0.545));
#996=CARTESIAN_POINT('',(-0.67,-0.775,0.545));
#997=CARTESIAN_POINT('',(-0.67,-0.775,0.55));
#998=CARTESIAN_POINT('',(-0.67,-0.775,0.275));
#999=CARTESIAN_POINT('',(-0.67,0.775,0.55));
#1000=CARTESIAN_POINT('',(-0.67,-0.3875,0.55));
#1001=CARTESIAN_POINT('',(-0.67,0.775,0.275));
#1002=CARTESIAN_POINT('Origin',(-0.92,0.775,0.55));
#1003=CARTESIAN_POINT('',(-0.92,0.775,0.545));
#1004=CARTESIAN_POINT('',(-0.92,-0.775,0.545));
#1005=CARTESIAN_POINT('',(-0.92,0.775,0.545));
#1006=CARTESIAN_POINT('',(-0.92,0.775,0.55));
#1007=CARTESIAN_POINT('',(-0.92,0.775,0.275));
#1008=CARTESIAN_POINT('',(-0.92,-0.775,0.55));
#1009=CARTESIAN_POINT('',(-0.92,0.3875,0.55));
#1010=CARTESIAN_POINT('',(-0.92,-0.775,0.275));
#1011=CARTESIAN_POINT('Origin',(-0.795,-4.29300254155876E-018,0.545));
#1012=CARTESIAN_POINT('',(-1.0725,0.775,0.545));
#1013=CARTESIAN_POINT('',(0.2775,-0.775,0.545));
#1014=CARTESIAN_POINT('Origin',(-1.73472347597681E-016,-9.20238335919248E-018,
0.55));
#1015=CARTESIAN_POINT('',(-1.35,0.775,0.55));
#1016=CARTESIAN_POINT('',(1.35,0.775,0.55));
#1017=CARTESIAN_POINT('',(-1.35,-0.775,0.55));
#1018=CARTESIAN_POINT('',(-1.35,0.775,0.55));
#1019=CARTESIAN_POINT('',(-1.35,-0.775,0.55));
#1020=CARTESIAN_POINT('Origin',(-1.73472347597681E-016,-9.20238335919248E-018,
0.55));
#1021=CARTESIAN_POINT('',(1.35,-0.775,0.55));
#1022=CARTESIAN_POINT('',(-1.35,-0.775,0.55));
#1023=CARTESIAN_POINT('',(1.35,0.775,0.55));
#1024=CARTESIAN_POINT('',(1.35,-0.775,0.55));
#1025=CARTESIAN_POINT('',(1.35,0.775,0.55));
#1026=CARTESIAN_POINT('Origin',(1.35,-0.775,0.));
#1027=CARTESIAN_POINT('',(-1.35,-0.775,0.));
#1028=CARTESIAN_POINT('',(-1.35,-0.775,0.));
#1029=CARTESIAN_POINT('',(1.35,-0.775,0.));
#1030=CARTESIAN_POINT('',(-1.35,-0.775,0.));
#1031=CARTESIAN_POINT('',(1.35,-0.775,0.));
#1032=CARTESIAN_POINT('Origin',(1.47469550628248,0.275,-0.241280440781984));
#1033=CARTESIAN_POINT('',(1.49093085102037,-0.275,-0.473456687441305));
#1034=CARTESIAN_POINT('',(1.47469550628248,-0.275,-0.241280440781984));
#1035=CARTESIAN_POINT('',(1.47506427338296,-0.275,-0.246554056012429));
#1036=CARTESIAN_POINT('',(1.47469550628248,0.275,-0.241280440781984));
#1037=CARTESIAN_POINT('',(1.47469550628248,0.275,-0.241280440781984));
#1038=CARTESIAN_POINT('',(1.49093085102037,0.275,-0.473456687441305));
#1039=CARTESIAN_POINT('',(1.49093085102037,0.275,-0.473456687441305));
#1040=CARTESIAN_POINT('',(1.49093085102037,0.275,-0.473456687441305));
#1041=CARTESIAN_POINT('Origin',(1.35,0.275,-0.25));
#1042=CARTESIAN_POINT('',(1.35,-0.275,-0.125));
#1043=CARTESIAN_POINT('Origin',(1.35,-0.275,-0.25));
#1044=CARTESIAN_POINT('',(1.35,0.275,-0.125));
#1045=CARTESIAN_POINT('',(1.35,-0.275,-0.125));
#1046=CARTESIAN_POINT('Origin',(1.35,0.275,-0.25));
#1047=CARTESIAN_POINT('Origin',(1.35,0.275,-0.25));
#1048=CARTESIAN_POINT('',(1.35,-0.275,0.));
#1049=CARTESIAN_POINT('',(1.59939101256496,-0.275,-0.232560881563969));
#1050=CARTESIAN_POINT('Origin',(1.35,-0.275,-0.25));
#1051=CARTESIAN_POINT('',(1.59939101256496,0.275,-0.232560881563969));
#1052=CARTESIAN_POINT('',(1.59939101256496,0.275,-0.232560881563969));
#1053=CARTESIAN_POINT('',(1.35,0.275,0.));
#1054=CARTESIAN_POINT('Origin',(1.35,0.275,-0.25));
#1055=CARTESIAN_POINT('',(1.35,0.525,8.73950324864043E-018));
#1056=CARTESIAN_POINT('Origin',(1.61562635730285,0.275,-0.464737128223289));
#1057=CARTESIAN_POINT('',(1.61562635730285,-0.275,-0.464737128223289));
#1058=CARTESIAN_POINT('',(1.60787745203439,-0.275,-0.353922620124073));
#1059=CARTESIAN_POINT('',(1.61562635730285,0.275,-0.464737128223289));
#1060=CARTESIAN_POINT('',(1.61562635730285,0.275,-0.464737128223289));
#1061=CARTESIAN_POINT('',(1.59939101256496,0.275,-0.232560881563969));
#1062=CARTESIAN_POINT('Origin',(1.74032186358533,0.275,-0.456017569005273));
#1063=CARTESIAN_POINT('',(1.73595942649752,-0.274999999999999,-0.58094142238266));
#1064=CARTESIAN_POINT('Origin',(1.74032186358533,-0.275,-0.456017569005273));
#1065=CARTESIAN_POINT('',(1.73595942649752,0.275,-0.58094142238266));
#1066=CARTESIAN_POINT('',(1.73595942649752,0.275,-0.58094142238266));
#1067=CARTESIAN_POINT('Origin',(1.74032186358533,0.275,-0.456017569005273));
#1068=CARTESIAN_POINT('Origin',(1.85436243708781,0.275,-0.585076146622613));
#1069=CARTESIAN_POINT('',(1.85436243708781,-0.274999999999999,-0.585076146622613));
#1070=CARTESIAN_POINT('',(0.924298176797853,-0.274999999999999,-0.552597586976514));
#1071=CARTESIAN_POINT('',(1.85436243708781,0.275,-0.585076146622613));
#1072=CARTESIAN_POINT('',(1.85436243708781,0.275,-0.585076146622613));
#1073=CARTESIAN_POINT('',(1.73595942649752,0.275,-0.58094142238266));
#1074=CARTESIAN_POINT('Origin',(1.85,0.275,-0.71));
#1075=CARTESIAN_POINT('',(1.85,-0.274999999999999,-0.71));
#1076=CARTESIAN_POINT('',(1.85506426028996,-0.274999999999999,-0.564978559646098));
#1077=CARTESIAN_POINT('',(1.85,0.275,-0.71));
#1078=CARTESIAN_POINT('',(1.85,0.275,-0.71));
#1079=CARTESIAN_POINT('',(1.85436243708781,0.275,-0.585076146622613));
#1080=CARTESIAN_POINT('Origin',(1.73159698940971,0.275,-0.705865275760047));
#1081=CARTESIAN_POINT('',(1.73159698940971,-0.274999999999999,-0.705865275760047));
#1082=CARTESIAN_POINT('',(0.860734234414893,-0.274999999999999,-0.675454078233925));
#1083=CARTESIAN_POINT('',(1.73159698940971,0.275,-0.705865275760047));
#1084=CARTESIAN_POINT('',(1.73159698940971,0.275,-0.705865275760047));
#1085=CARTESIAN_POINT('',(1.85,0.275,-0.71));
#1086=CARTESIAN_POINT('Origin',(1.74032186358533,0.275,-0.456017569005273));
#1087=CARTESIAN_POINT('Origin',(1.74032186358533,-0.275,-0.456017569005273));
#1088=CARTESIAN_POINT('Origin',(1.74032186358533,0.275,-0.456017569005273));
#1089=CARTESIAN_POINT('Origin',(-1.74032186358533,0.275,-0.456017569005273));
#1090=CARTESIAN_POINT('',(-1.73595942649752,-0.274999999999999,-0.58094142238266));
#1091=CARTESIAN_POINT('',(-1.61562635730285,-0.275,-0.464737128223289));
#1092=CARTESIAN_POINT('Origin',(-1.74032186358533,-0.275,-0.456017569005273));
#1093=CARTESIAN_POINT('',(-1.61562635730285,0.275,-0.464737128223289));
#1094=CARTESIAN_POINT('',(-1.61562635730285,0.275,-0.464737128223289));
#1095=CARTESIAN_POINT('',(-1.73595942649752,0.275,-0.58094142238266));
#1096=CARTESIAN_POINT('Origin',(-1.74032186358533,0.275,-0.456017569005273));
#1097=CARTESIAN_POINT('',(-1.73595942649752,0.275,-0.58094142238266));
#1098=CARTESIAN_POINT('Origin',(-1.73595942649752,0.275,-0.58094142238266));
#1099=CARTESIAN_POINT('',(-1.85436243708781,-0.274999999999999,-0.585076146622613));
#1100=CARTESIAN_POINT('',(-0.865096671502706,-0.274999999999999,-0.550530224856538));
#1101=CARTESIAN_POINT('',(-1.85436243708781,0.275,-0.585076146622613));
#1102=CARTESIAN_POINT('',(-1.85436243708781,0.275,-0.585076146622613));
#1103=CARTESIAN_POINT('',(-1.85436243708781,0.275,-0.585076146622613));
#1104=CARTESIAN_POINT('Origin',(-1.85436243708781,0.275,-0.585076146622613));
#1105=CARTESIAN_POINT('',(-1.85,-0.274999999999999,-0.71));
#1106=CARTESIAN_POINT('',(-1.85724547883387,-0.275,-0.502516632957405));
#1107=CARTESIAN_POINT('',(-1.85,0.275,-0.71));
#1108=CARTESIAN_POINT('',(-1.85,0.275,-0.71));
#1109=CARTESIAN_POINT('',(-1.85,0.275,-0.71));
#1110=CARTESIAN_POINT('Origin',(-1.85,0.275,-0.71));
#1111=CARTESIAN_POINT('',(-1.73159698940971,-0.274999999999999,-0.705865275760047));
#1112=CARTESIAN_POINT('',(-0.91993573971004,-0.274999999999999,-0.677521440353901));
#1113=CARTESIAN_POINT('',(-1.73159698940971,0.275,-0.705865275760047));
#1114=CARTESIAN_POINT('',(-1.73159698940971,0.275,-0.705865275760047));
#1115=CARTESIAN_POINT('',(-1.73159698940971,0.275,-0.705865275760047));
#1116=CARTESIAN_POINT('Origin',(-1.74032186358533,0.275,-0.456017569005273));
#1117=CARTESIAN_POINT('',(-1.49093085102037,-0.275,-0.473456687441305));
#1118=CARTESIAN_POINT('Origin',(-1.74032186358533,-0.275,-0.456017569005273));
#1119=CARTESIAN_POINT('',(-1.49093085102037,0.275,-0.473456687441305));
#1120=CARTESIAN_POINT('Origin',(-1.74032186358533,0.275,-0.456017569005273));
#1121=CARTESIAN_POINT('',(-1.49093085102037,0.275,-0.473456687441305));
#1122=CARTESIAN_POINT('Origin',(-1.49093085102037,0.275,-0.473456687441305));
#1123=CARTESIAN_POINT('',(-1.47469550628248,-0.275,-0.241280440781984));
#1124=CARTESIAN_POINT('',(-1.48318194575191,-0.275,-0.362642179342088));
#1125=CARTESIAN_POINT('',(-1.47469550628248,0.275,-0.241280440781984));
#1126=CARTESIAN_POINT('',(-1.47469550628248,0.275,-0.241280440781984));
#1127=CARTESIAN_POINT('',(-1.47469550628248,0.275,-0.241280440781984));
#1128=CARTESIAN_POINT('Origin',(-1.35,0.275,-0.25));
#1129=CARTESIAN_POINT('',(-1.35,-0.275,-0.125));
#1130=CARTESIAN_POINT('Origin',(-1.35,-0.275,-0.25));
#1131=CARTESIAN_POINT('',(-1.35,0.275,-0.125));
#1132=CARTESIAN_POINT('Origin',(-1.35,0.275,-0.25));
#1133=CARTESIAN_POINT('',(-1.35,0.1375,-0.125));
#1134=CARTESIAN_POINT('Origin',(-1.35,0.275,-0.25));
#1135=CARTESIAN_POINT('',(-1.59939101256496,-0.275,-0.232560881563969));
#1136=CARTESIAN_POINT('',(-1.35,-0.275,0.));
#1137=CARTESIAN_POINT('Origin',(-1.35,-0.275,-0.25));
#1138=CARTESIAN_POINT('',(-1.35,0.275,0.));
#1139=CARTESIAN_POINT('',(-1.35,-0.25,8.67361737988404E-018));
#1140=CARTESIAN_POINT('',(-1.59939101256496,0.275,-0.232560881563969));
#1141=CARTESIAN_POINT('Origin',(-1.35,0.275,-0.25));
#1142=CARTESIAN_POINT('',(-1.59939101256496,0.275,-0.232560881563969));
#1143=CARTESIAN_POINT('Origin',(-1.59939101256496,0.275,-0.232560881563969));
#1144=CARTESIAN_POINT('',(-1.59975977966544,-0.275,-0.237834496794414));
#1145=CARTESIAN_POINT('',(-1.61562635730285,0.275,-0.464737128223289));
#1146=CARTESIAN_POINT('Origin',(1.35,0.775,0.));
#1147=CARTESIAN_POINT('',(1.35,0.775,0.));
#1148=CARTESIAN_POINT('',(1.35,-0.775,0.));
#1149=CARTESIAN_POINT('',(1.35,0.775,0.));
#1150=CARTESIAN_POINT('',(1.35,-0.775,0.));
#1151=CARTESIAN_POINT('Origin',(1.35,-0.275,-0.125));
#1152=CARTESIAN_POINT('',(-1.33906391705926,-0.275,-0.125));
#1153=CARTESIAN_POINT('',(-1.33431872773115,-0.275,-0.17923776220681));
#1154=CARTESIAN_POINT('',(1.35,-0.275,-0.125));
#1155=CARTESIAN_POINT('Origin',(1.35,0.275,-0.125));
#1156=CARTESIAN_POINT('',(-1.33906391705926,0.275,-0.125));
#1157=CARTESIAN_POINT('',(-1.33906391705926,0.525000000000001,-0.125));
#1158=CARTESIAN_POINT('',(1.35,0.275,-0.125));
#1159=CARTESIAN_POINT('Origin',(1.35,0.275,-0.125));
#1160=CARTESIAN_POINT('',(1.33906391705926,0.275,-0.125));
#1161=CARTESIAN_POINT('',(1.33906391705926,-0.275,-0.125));
#1162=CARTESIAN_POINT('',(1.33906391705926,-0.25,-0.125));
#1163=CARTESIAN_POINT('',(1.35,0.275,-0.125));
#1164=CARTESIAN_POINT('',(1.35,-0.275,-0.125));
#1165=CARTESIAN_POINT('Origin',(1.35,0.275,0.));
#1166=CARTESIAN_POINT('',(-1.33974523328324,0.275,-0.117212519925178));
#1167=CARTESIAN_POINT('Origin',(1.35,0.275,0.));
#1168=CARTESIAN_POINT('',(1.35,0.275,-1.63248076839942E-017));
#1169=CARTESIAN_POINT('Origin',(1.35,-0.275,-0.125));
#1170=CARTESIAN_POINT('',(1.34457349444791,-0.275,-0.0620252422816312));
#1171=CARTESIAN_POINT('Origin',(-1.35,0.775000000000001,0.));
#1172=CARTESIAN_POINT('',(-1.35,0.775,0.));
#1173=CARTESIAN_POINT('',(-1.35,0.775,0.));
#1174=CARTESIAN_POINT('',(-1.28875793553185,0.713757935531854,-0.7));
#1175=CARTESIAN_POINT('',(-1.33982254250721,0.76482254250721,-0.116328871451725));
#1176=CARTESIAN_POINT('',(-1.28875793553185,-0.713757935531854,-0.7));
#1177=CARTESIAN_POINT('',(-1.28875793553185,-0.775,-0.7));
#1178=CARTESIAN_POINT('',(-1.3441573855134,-0.769157385513398,-0.0667813891667311));
#1179=CARTESIAN_POINT('',(-1.35,0.775,0.));
#1180=CARTESIAN_POINT('Origin',(1.35,-0.775,0.));
#1181=CARTESIAN_POINT('',(1.28875793553185,-0.713757935531853,-0.7));
#1182=CARTESIAN_POINT('',(1.33982254250721,-0.76482254250721,-0.116328871451725));
#1183=CARTESIAN_POINT('',(1.28875793553185,0.713757935531853,-0.7));
#1184=CARTESIAN_POINT('',(1.28875793553185,0.775,-0.7));
#1185=CARTESIAN_POINT('',(1.3441573855134,0.769157385513398,-0.0667813891667311));
#1186=CARTESIAN_POINT('Origin',(1.35,0.775,0.));
#1187=CARTESIAN_POINT('',(-1.35,0.713757935531854,-0.7));
#1188=CARTESIAN_POINT('',(1.35,0.775,0.));
#1189=CARTESIAN_POINT('Origin',(-1.35,-0.775,0.));
#1190=CARTESIAN_POINT('',(1.35,-0.713757935531853,-0.7));
#1191=CARTESIAN_POINT('Origin',(-2.08166817117217E-016,9.73671529617784E-017,
-0.7));
#1192=CARTESIAN_POINT('Origin',(-1.35,-0.775,0.));
#1193=CARTESIAN_POINT('',(-1.35,0.775,0.));
#1194=CARTESIAN_POINT('Origin',(-1.35,0.775,0.));
#1195=UNCERTAINTY_MEASURE_WITH_UNIT(LENGTH_MEASURE(0.01),#1199,
'DISTANCE_ACCURACY_VALUE',
'Maximum model space distance between geometric entities at asserted c
onnectivities');
#1196=UNCERTAINTY_MEASURE_WITH_UNIT(LENGTH_MEASURE(1.E-006),#1199,
'DISTANCE_ACCURACY_VALUE',
'Maximum model space distance between geometric entities at asserted c
onnectivities');
#1197=(
GEOMETRIC_REPRESENTATION_CONTEXT(3)
GLOBAL_UNCERTAINTY_ASSIGNED_CONTEXT((#1195))
GLOBAL_UNIT_ASSIGNED_CONTEXT((#1199,#1202,#1200))
REPRESENTATION_CONTEXT('','3D')
);
#1198=(
GEOMETRIC_REPRESENTATION_CONTEXT(3)
GLOBAL_UNCERTAINTY_ASSIGNED_CONTEXT((#1196))
GLOBAL_UNIT_ASSIGNED_CONTEXT((#1199,#1202,#1200))
REPRESENTATION_CONTEXT('','3D')
);
#1199=(
LENGTH_UNIT()
NAMED_UNIT(*)
SI_UNIT(.MILLI.,.METRE.)
);
#1200=(
NAMED_UNIT(*)
SI_UNIT($,.STERADIAN.)
SOLID_ANGLE_UNIT()
);
#1201=DIMENSIONAL_EXPONENTS(0.,0.,0.,0.,0.,0.,0.);
#1202=(
CONVERSION_BASED_UNIT('degree',#1204)
NAMED_UNIT(#1201)
PLANE_ANGLE_UNIT()
);
#1203=(
NAMED_UNIT(*)
PLANE_ANGLE_UNIT()
SI_UNIT($,.RADIAN.)
);
#1204=PLANE_ANGLE_MEASURE_WITH_UNIT(PLANE_ANGLE_MEASURE(0.01745329252),
#1203);
#1205=SHAPE_DEFINITION_REPRESENTATION(#1206,#1207);
#1206=PRODUCT_DEFINITION_SHAPE('',$,#1209);
#1207=SHAPE_REPRESENTATION('',(#743),#1197);
#1208=PRODUCT_DEFINITION_CONTEXT('part definition',#1213,'design');
#1209=PRODUCT_DEFINITION('39100101','39100101',#1210,#1208);
#1210=PRODUCT_DEFINITION_FORMATION('',$,#1215);
#1211=PRODUCT_RELATED_PRODUCT_CATEGORY('39100101','39100101',(#1215));
#1212=APPLICATION_PROTOCOL_DEFINITION('international standard',
'automotive_design',2009,#1213);
#1213=APPLICATION_CONTEXT(
'Core Data for Automotive Mechanical Design Process');
#1214=PRODUCT_CONTEXT('part definition',#1213,'mechanical');
#1215=PRODUCT('39100101','39100101',$,(#1214));
#1216=PRESENTATION_STYLE_ASSIGNMENT((#1218));
#1217=PRESENTATION_STYLE_ASSIGNMENT((#1219));
#1218=SURFACE_STYLE_USAGE(.BOTH.,#1220);
#1219=SURFACE_STYLE_USAGE(.BOTH.,#1221);
#1220=SURFACE_SIDE_STYLE($,(#1222));
#1221=SURFACE_SIDE_STYLE($,(#1223));
#1222=SURFACE_STYLE_FILL_AREA(#1224);
#1223=SURFACE_STYLE_FILL_AREA(#1225);
#1224=FILL_AREA_STYLE($,(#1226));
#1225=FILL_AREA_STYLE($,(#1227));
#1226=FILL_AREA_STYLE_COLOUR($,#1228);
#1227=FILL_AREA_STYLE_COLOUR($,#1229);
#1228=COLOUR_RGB('',0.301960784313725,0.294117647058824,0.329411764705882);
#1229=COLOUR_RGB('',1.,1.,1.);
ENDSEC;
END-ISO-10303-21;
